<svg width="404" height="404" viewBox="0 0 404 404" fill="none" xmlns="http://www.w3.org/2000/svg">
<path fill-rule="evenodd" clip-rule="evenodd" d="M386.066 8.77535C385.733 9.56431 382.863 13.2412 372.533 26.1114C365.759 34.5514 363.454 37.348 362.295 38.5368C360.012 40.8785 357.94 43.4014 355.549 45.6332C348.558 52.1604 333.001 66.5381 324.386 73.3615C323.055 74.4159 321.844 75.3945 321.696 75.5358C321.145 76.0627 313.222 82.1848 310.958 83.8331C309.665 84.7741 308.345 85.7683 308.024 86.043C307.703 86.3173 306.23 87.4171 304.751 88.4871C303.271 89.5567 301.94 90.5651 301.792 90.7274C301.294 91.2739 278.435 106.62 274.087 109.326C261.74 117.012 259.102 118.573 250.417 123.33C236.9 130.736 221.755 138.162 213.03 141.662C211.994 142.078 209.014 143.314 206.408 144.41C203.802 145.506 201.549 146.402 201.402 146.402C201.255 146.402 200.12 146.813 198.879 147.315C197.638 147.817 194.564 148.944 192.049 149.82C189.535 150.695 187.057 151.604 186.543 151.84C186.029 152.076 185.34 152.268 185.01 152.268C184.681 152.268 183.649 152.584 182.717 152.969C181.784 153.354 177.511 154.655 173.221 155.86C166.244 157.82 163.965 158.42 157.082 160.109C147.225 162.528 133.27 164.794 121.04 165.96C111.136 166.905 93.6787 167.038 84.4587 166.24C70.82 165.059 59.5612 163.366 48.4158 160.817C46.4926 160.377 43.9508 159.829 42.7673 159.599C37.54 158.581 22.8851 152.51 18.2904 149.459C13.1659 146.056 10.2211 142.325 10.2211 139.233C10.2211 137.23 9.00964 138.126 7.18436 141.478C2.95067 149.252 2.11418 161.678 5.33922 168.879C8.48678 175.907 14.2095 181.134 23.6092 185.565C25.2537 186.34 26.9085 186.975 27.2861 186.975C27.6643 186.975 27.9736 187.195 27.9736 187.463C27.9736 187.732 28.3604 187.952 28.8338 187.952C29.3066 187.952 30.4568 188.263 31.3891 188.643C34.3812 189.862 46.306 192.87 51.9561 193.831C58.347 194.918 66.6094 195.84 73.9686 196.287C78.1109 196.538 84.1505 196.975 87.3895 197.258C91.5484 197.621 95.7375 197.617 101.645 197.243C106.247 196.952 113.28 196.511 117.274 196.261C128.839 195.538 140.761 193.829 153.048 191.134C155.119 190.679 158.145 190.053 159.772 189.741C161.4 189.43 162.975 189.029 163.273 188.852C163.571 188.675 164.782 188.371 165.963 188.177C167.144 187.984 168.353 187.653 168.648 187.443C168.944 187.234 170.155 186.904 171.338 186.71C172.522 186.517 173.732 186.196 174.028 185.999C174.324 185.801 175.171 185.515 175.911 185.363C177.854 184.963 186.108 182.272 186.509 181.907C186.696 181.736 187.233 181.59 187.701 181.581C188.169 181.572 189.521 181.14 190.705 180.62C191.888 180.1 193.163 179.668 193.536 179.659C193.91 179.65 194.637 179.429 195.15 179.168C195.664 178.908 198.142 177.941 200.657 177.02C204.791 175.506 208.854 173.911 213.277 172.066C215.065 171.319 216.08 171.565 215.051 172.495C214.679 172.831 212.559 174.316 210.34 175.795C206.741 178.194 202.955 180.492 187.477 189.671C183.384 192.098 178.695 194.603 172.145 197.863C170.518 198.673 168.944 199.504 168.648 199.709C167.73 200.345 146.801 209.746 142.827 211.308C131.198 215.877 116.332 220.833 107.322 223.144C101.723 224.58 93.094 226.494 90.9142 226.782C89.5827 226.959 87.404 227.314 86.0726 227.57C75.1371 229.681 47.2001 231.078 37.1188 230.018C25.4145 228.788 16.3306 226.044 12.8334 222.684C11.4342 221.338 10.2228 218.918 10.2034 217.428C10.1968 216.936 9.59212 216.706 9.25939 217.068L9.17319 217.162C8.06554 218.369 5.76685 223.586 4.81413 227.058C3.64408 231.322 3.18578 236.151 3.51555 240.737C4.17777 249.939 8.90098 255.718 18.8284 259.471C28.9796 263.31 50.5036 263.752 71.8168 260.56C74.4797 260.161 78.353 259.593 80.4241 259.298C82.4952 259.003 84.5529 258.627 84.9967 258.463C85.4405 258.298 87.135 257.89 88.7624 257.556C90.3897 257.221 93.2946 256.589 95.2178 256.152C97.141 255.714 99.5618 255.173 100.597 254.948C101.633 254.724 103.206 254.322 104.094 254.055C104.982 253.789 107.16 253.187 108.936 252.718C110.711 252.25 112.535 251.702 112.988 251.501C113.441 251.299 114.644 250.969 115.66 250.766C116.676 250.563 117.879 250.224 118.332 250.013C118.786 249.802 121.335 248.923 123.998 248.06C126.661 247.197 129.566 246.215 130.454 245.877C138.846 242.685 144.125 240.753 145.243 240.463C146.492 240.139 146.529 240.177 145.781 241.018C145.339 241.515 143.286 243.361 141.216 245.121C122.533 261.015 106.976 275.457 92.4839 290.361C91.1767 291.705 89.9733 292.915 89.8098 293.049C87.9716 294.56 69.6047 314.931 62.9244 322.867C61.9061 324.077 60.7818 325.345 60.4251 325.684C60.0684 326.023 58.2577 328.223 56.4007 330.572C52.3956 335.64 50.9512 337.305 41.4224 347.838C37.4281 352.254 32.3493 358.066 30.1367 360.753C27.9241 363.441 25.9164 365.859 25.6765 366.128C24.9707 366.917 22.9317 369.475 21.2608 371.625C19.6303 373.722 18.0842 376.095 16.4673 378.203C13.9776 381.449 7.32264 391.326 4.84106 395.458C0.847828 402.106 0 403.564 0 403.779C0 403.907 3.93405 404.007 8.74175 404L10.34 403.997C14.8396 403.991 19.0763 401.877 21.7871 398.285C22.3679 397.516 23.0867 396.593 23.9112 395.553C39.7517 375.574 57.2405 356.767 77.1899 340.89C78.6655 339.715 81.0863 337.75 82.5695 336.522C85.2587 334.296 94.0252 327.662 101.673 322.066C116.101 311.508 145.648 292.856 157.082 287.089C158.414 286.417 161.924 284.591 164.883 283.031C167.842 281.471 174.62 278.192 179.946 275.744C188.551 271.789 191.484 270.516 199.85 267.105C203.563 265.591 213.634 261.956 218.678 260.31C221.341 259.441 224.004 258.564 224.596 258.36C227.978 257.196 243.623 253.007 248.535 251.949C259.949 249.492 272.092 247.645 283.771 246.59C291.776 245.868 315.861 245.844 322.503 246.552C331.953 247.56 344.194 249.306 346.711 250.005C347.599 250.251 349.414 250.596 350.746 250.771C352.077 250.946 353.893 251.279 354.78 251.51C355.668 251.743 358.089 252.31 360.16 252.771C363.764 253.573 364.673 253.862 369.117 255.614C370.198 256.039 371.232 256.387 371.415 256.387C372.203 256.387 381.108 260.507 383.692 262.068C387.633 264.447 392.168 268.487 392.168 269.617C392.168 270.138 392.41 270.563 392.706 270.563C393.002 270.563 393.244 271.443 393.244 272.519C393.244 275.439 394.509 275.001 396.421 271.419C401.093 262.662 401.851 251.073 398.267 243.189C396.533 239.374 394.895 237.293 390.823 233.729C378.823 223.225 351.394 216.557 316.048 215.551C306.568 215.281 289.962 215.789 282.964 216.563C262.973 218.773 249.637 221.254 232.127 226.019C222.962 228.514 206.905 233.905 200.006 236.803C194.554 239.094 188.603 241.197 188.32 240.933C187.776 240.424 191.726 237.682 201.537 231.755C206.822 228.562 211.797 225.543 212.591 225.046C215.821 223.027 225.263 217.958 231.288 215.01C232.307 214.512 233.396 213.929 233.709 213.715C235.885 212.226 263.877 199.689 265.043 199.681C265.284 199.679 266.085 199.396 266.825 199.051C267.565 198.706 269.259 198.057 270.591 197.608C271.922 197.159 273.738 196.53 274.625 196.209C278.252 194.9 285.075 192.746 288.612 191.793C290.683 191.236 292.862 190.603 293.454 190.387C295.52 189.634 299.926 188.514 302.061 188.199C303.244 188.025 304.697 187.685 305.289 187.445C306.912 186.786 318.165 184.867 325.193 184.05C339.641 182.371 357.771 181.712 366.201 182.558C375.009 183.443 381.221 184.882 386.398 187.236C390.985 189.322 393.244 191.855 393.244 194.912C393.244 198.341 396.06 194.306 398.272 187.708C402.29 175.724 400.872 164.823 394.504 158.74C390.385 154.805 383.814 152.034 375.492 150.721C370.608 149.951 350.187 149.634 345.904 150.263C343.981 150.545 340.229 150.999 337.566 151.271C328.524 152.195 326.27 152.572 313.896 155.224C296.996 158.845 284.675 162.465 268.17 168.657C259.686 171.84 258.092 172.359 257.753 172.05C257.571 171.885 258.387 170.971 259.568 170.02C267.201 163.87 285.039 147.945 295.262 138.153C303.585 130.183 303.341 130.421 308.785 124.892C314.574 119.012 316.513 117.015 317.98 115.419C318.692 114.644 319.528 113.764 319.837 113.464C321.143 112.193 333.482 98.464 335.931 95.5565C337.399 93.8134 338.731 92.2775 338.89 92.1431C339.049 92.0086 340.385 90.4688 341.859 88.7213C343.333 86.9738 344.73 85.324 344.963 85.0551C345.196 84.7863 347.234 82.2566 349.49 79.4337C351.746 76.6107 352.136 76.1094 353.941 74.0566C355.57 72.2034 356.072 71.8325 358.25 69.4128C360.428 66.9931 362.483 64.7934 362.818 64.5246C363.152 64.2557 364.612 62.606 366.062 60.8584C368.798 57.5626 371.586 54.3178 374.264 50.9755C379.487 44.4577 388.545 32.9793 393.827 25.2912C395.699 22.5665 397.148 20.2563 400.797 14.1758C403.736 9.27931 403.996 8.81248 404 8.43218C404.002 8.23078 400.035 8.06556 395.185 8.06556C387.973 8.06556 386.311 8.19462 386.066 8.77535Z" fill="#212529"/>
<path d="M183.727 49.7157C182.888 45.5372 174.204 22.8314 165.742 2.68852C165.495 2.09995 166.235 1.59793 166.69 2.0458L167.343 2.68852C170.551 5.84534 180.839 19.7138 185.611 27.312C188.515 31.9353 193.56 41.1745 195.08 44.6515C195.569 45.7724 195.701 45.7127 200.943 41.9904C215.365 31.75 231.265 19.5353 240.94 11.263C243.49 9.08331 246.381 6.70227 247.366 5.97197C250.809 3.4164 254.485 4.73426 257.375 9.55943C259.654 13.3634 259.544 15.5128 256.905 18.7806C254.384 21.9012 245.109 29.3558 231.828 38.9367C226.519 42.7671 222.357 46.0617 222.578 46.2582C222.801 46.4548 226.492 46.1903 230.782 45.6702C248.364 43.5399 253.948 43.1161 256.281 43.7345C259.324 44.5405 262.194 46.4152 263.337 48.3451C264.48 50.2725 264.195 53.5823 262.763 55.0204C260.224 57.5691 250.635 59.127 225.403 61.0896C216.378 61.7916 207.986 62.5219 206.753 62.712C205.626 62.8861 204.975 64.086 205.443 65.1258L206.383 67.2131C209.722 74.6295 215.719 91.3605 215.719 93.2625C215.72 99.6949 205.199 105.806 201.657 101.431C201.113 100.759 199.352 95.5893 197.743 89.9434C195.032 80.4279 191.58 70.0668 190.582 68.4464C190.254 67.9131 188.342 68.8321 182.093 72.5266C167.366 81.234 150.122 90.4483 134.488 97.964C129.902 100.169 125.545 102.269 124.805 102.631C116.963 106.47 93.2844 115.462 95.504 113.758C98.6967 111.306 105.527 106.838 133.413 88.9584C157.921 73.2437 168.917 65.7481 168.917 64.7563C168.917 64.5813 161.454 64.2929 152.331 64.1154C128.419 63.6506 113.508 62.4099 113.508 60.8848C113.508 60.4527 116.665 59.9824 131.799 58.1606C160.949 54.6518 180.778 52.1691 182.825 51.7722C183.965 51.5512 184.054 51.3464 183.727 49.7157Z" fill="#212529"/>
</svg>
